<svg width="1664" height="2048" viewBox="0 0 1664 2048" fill="none" xmlns="http://www.w3.org/2000/svg">
<path d="M1664 384H1536V1856C1536 1882.67 1531 1907.67 1521 1931C1511 1954.33 1497.33 1974.67 1480 1992C1462.67 2009.33 1442.33 2023 1419 2033C1395.67 2043 1370.67 2048 1344 2048H320C293.333 2048 268.333 2043 245 2033C221.667 2023 201.333 2009.33 184 1992C166.667 1974.67 153 1954.33 143 1931C133 1907.67 128 1882.67 128 1856V384H0V256H512V128C512 110 515.333 93.3333 522 78C528.667 62.6667 537.667 49.3333 549 38C560.333 26.6667 574 17.3333 590 9.99999C606 2.66666 622.667 -0.666677 640 -1.01626e-05H1024C1042 -1.01626e-05 1058.67 3.33332 1074 9.99999C1089.33 16.6667 1102.67 25.6667 1114 37C1125.33 48.3333 1134.67 62 1142 78C1149.33 94 1152.67 110.667 1152 128V256H1664V384ZM640 256H1024V128H640V256ZM1408 384H256V1856C256 1873.33 262.333 1888.33 275 1901C287.667 1913.67 302.667 1920 320 1920H1344C1361.33 1920 1376.33 1913.67 1389 1901C1401.67 1888.33 1408 1873.33 1408 1856V384ZM640 1664H512V640H640V1664ZM896 1664H768V640H896V1664ZM1152 1664H1024V640H1152V1664Z" fill="#D00038"/>
</svg>
