<svg width="793" height="793" viewBox="0 0 793 793" fill="none" xmlns="http://www.w3.org/2000/svg">
<path d="M704 409C704 400.513 707.371 392.374 713.373 386.373C719.374 380.371 727.513 377 736 377C744.487 377 752.626 380.371 758.627 386.373C764.629 392.374 768 400.513 768 409V761C768 769.487 764.629 777.626 758.627 783.627C752.626 789.629 744.487 793 736 793H32C23.5131 793 15.3738 789.629 9.37259 783.627C3.37143 777.626 0 769.487 0 761V57C0 48.5131 3.37143 40.3738 9.37259 34.3726C15.3738 28.3714 23.5131 25 32 25H384C392.487 25 400.626 28.3714 406.627 34.3726C412.629 40.3738 416 48.5131 416 57C416 65.4869 412.629 73.6262 406.627 79.6274C400.626 85.6286 392.487 89 384 89H64V729H704V409Z" fill="black"/>
<path d="M341.952 451.24L394.752 443.688L719.104 119.4C722.16 116.448 724.598 112.917 726.275 109.013C727.952 105.109 728.835 100.91 728.872 96.6609C728.909 92.4119 728.099 88.1982 726.49 84.2655C724.881 80.3328 722.505 76.7599 719.501 73.7554C716.496 70.7508 712.923 68.3747 708.991 66.7657C705.058 65.1567 700.844 64.3471 696.595 64.384C692.346 64.4209 688.147 65.3037 684.243 66.9808C680.339 68.6579 676.808 71.0957 673.856 74.152L349.44 398.44L341.888 451.24H341.952ZM764.352 28.84C773.273 37.7552 780.35 48.3409 785.178 59.9922C790.006 71.6435 792.492 84.1319 792.492 96.744C792.492 109.356 790.006 121.845 785.178 133.496C780.35 145.147 773.273 155.733 764.352 164.648L432.512 496.488C427.619 501.399 421.262 504.589 414.4 505.576L308.8 520.68C303.879 521.387 298.86 520.937 294.143 519.367C289.426 517.796 285.139 515.148 281.624 511.632C278.108 508.117 275.46 503.83 273.889 499.113C272.319 494.396 271.869 489.377 272.576 484.456L287.68 378.856C288.65 372.001 291.816 365.646 296.704 360.744L628.608 28.904C646.611 10.9068 671.024 0.796509 696.48 0.796509C721.936 0.796509 746.349 10.9068 764.352 28.904V28.84Z" fill="black"/>
</svg>
